{"title":"Passenger 57 (1992) Wesley Snipes (QualityRip, Opt.MULTISUBS)","uid":4517226,"size":742096259,"categoryP":"video","categoryS":"movies","magnet":"?xt=urn:btih:e78cb2591a85e18ca3d7512c636b2389ef42093b&amp;dn=Passenger+57+%281992%29+Wesley+Snipes+%28QualityRip%2C+Opt.MULTISUBS%29&amp;tr=udp%3A%2F%2Ftracker.openbittorrent.com%3A80&amp;tr=udp%3A%2F%2Fopen.demonii.com%3A1337&amp;tr=udp%3A%2F%2Ftracker.coppersurfer.tk%3A6969&amp;tr=udp%3A%2F%2Fexodus.desync.com%3A6969","seeders":3,"leechers":1,"uploader":"Kuthumi","files":-1,"time":1227022142,"description":"Passenger 57 (1992) Wesley Snipes (Quality DVDrip, Opt.MULTISUBS)\n &lt;a href=&quot;\nhttp://www.imdb.com/title/tt0105104/&quot; rel=&quot;nofollow&quot; target=&quot;_NEW&quot;&gt;\nhttp://www.imdb.com/title/tt0105104/&lt;/a&gt;\n\nOptional subtitles in separate idx/sub files:\nCroatian (Hrvatski), Czech, Danish, Dutch, English, Finnish, French, German, Greek, Hebrew, Hungarian, Icelandic, Italian, Norwegian, Polish, Portuguese, Spanish, Swedish, Turkish.\n\n(Tip: Click the blue number of Files at top-left to check the contents of this upload and see that your language is really there.)\n\nOne of my all-time favourite action films, partly because of the plane which I thought was a DC-10 until I discovered that it is the almost identical Lockhead Tristar.\n(For planespotters: The huge DC-10 had the third engine mounted straight through the tail fin. The Tristar had only the inlet opening to the engine in front of the fin.)\n\nWidescreen DVDrip XviD 2-pass 720x288, really great stereo sound AC3.\nBurn tested, runs well in both my standalone DivX players.\n\n(This is an improved rip of my own upload from May 2008, which had a resolution of only 608x256p and no subtitles.)\n\n\nFormat/Info                      : Audio Video Interleave\nFile size                        : 698 MiB\nDuration                         : 1h 20mn\nOveral bit rate                  : 1215 Kbps\n\nVideo\nFormat                           : MPEG-4 Visual\nFormat profile                   : Streaming Video@L1\nFormat settings, BVOP            : Yes\nFormat settings, QPel            : No\nFormat settings, GMC             : No warppoints\nFormat settings, Matrix          : Default\nMuxing mode                      : Packet Bitstream\nCodec ID                         : XVID\nCodec ID/Hint                    : XviD\nDuration                         : 1h 20mn\nBit rate                         : 1077 Kbps\nWidth                            : 720 pixels\nHeight                           : 288 pixels\nDisplay aspect ratio             : 2.500\nFrame rate                       : 25.000 fps\nResolution                       : 8 bits\nColorimetry                      : 4:2:0\nScan type                        : Progressive\nBits/(Pixel*Frame)               : 0.208\nStream size                      : 619 MiB\nWriting library                  : XviD 1.2.0.dev47 (UTC 2006-11-01)\n\nAudio\nFormat                           : MPEG Audio\nFormat version                   : Version 1\nFormat profile                   : Layer 3\nCodec ID                         : 55\nCodec ID/Hint                    : MP3\nDuration                         : 1h 20mn\nBit rate mode                    : Constant\nBit rate                         : 128 Kbps\nMinimum bit rate                 : 128 Kbps\nChannel(s)                       : 2 channels\nSampling rate                    : 48.0 KHz\nResolution                       : 16 bits\nStream size                      : 73.5 MiB\nWriting library                  : LAME3.97 \nEncoding settings                : CBR\n\nSource: PAL native (note that PAL/NTSC will give no problems for avi files).","torrent":{"xt":"urn:btih:e78cb2591a85e18ca3d7512c636b2389ef42093b","amp;dn":"Passenger+57+%281992%29+Wesley+Snipes+%28QualityRip%2C+Opt.MULTISUBS%29","amp;tr":["udp%3A%2F%2Ftracker.openbittorrent.com%3A80","udp%3A%2F%2Fopen.demonii.com%3A1337","udp%3A%2F%2Ftracker.coppersurfer.tk%3A6969","udp%3A%2F%2Fexodus.desync.com%3A6969"],"infoHash":"e78cb2591a85e18ca3d7512c636b2389ef42093b","infoHashBuffer":{"type":"Buffer","data":[231,140,178,89,26,133,225,140,163,215,81,44,99,107,35,137,239,66,9,59]},"announce":[],"urlList":[]}}